<svg xmlns="http://www.w3.org/2000/svg" viewBox="0 0 24 24" width="32" height="32">
  <defs>
    <linearGradient id="bookGrad" x1="0%" y1="0%" x2="100%" y2="100%">
      <stop offset="0%" stop-color="#3986DD" />
      <stop offset="100%" stop-color="#2F5792" />
    </linearGradient>
  </defs>
  <!-- Book spine/back -->
  <path d="M2 3h6a4 4 0 0 1 4 4v14a3 3 0 0 0-3-3H2z" fill="url(#bookGrad)" />
  <path d="M22 3h-6a4 4 0 0 0-4 4v14a3 3 0 0 1 3-3h7z" fill="url(#bookGrad)" />
  <!-- Book pages details -->
  <path d="M5 6h4M5 10h4M5 14h4" stroke="#FFFFFF" stroke-width="1.5" stroke-linecap="round"/>
  <path d="M15 6h4M15 10h4M15 14h4" stroke="#FFFFFF" stroke-width="1.5" stroke-linecap="round"/>
</svg>
